<svg viewBox="0 0 50 50"><path d="M 46.225644,1.5571214 H 3.7743562 c -2.1034422,0 -3.63321836,1.4426387 -3.63321836,3.4262669 V 45.016612 c 0,1.803298 1.72099816,3.426267 3.63321836,3.426267 H 46.225644 c 2.103442,0 3.633218,-1.442639 3.633218,-3.426267 V 4.9833883 c 0,-1.9836282 -1.720998,-3.4262669 -3.633218,-3.4262669 z M 15.438899,41.229685 H 7.7900185 v -21.63958 h 7.6488805 z m -3.82444,-24.524857 c -2.4858864,0 -4.5893286,-1.983629 -4.5893286,-4.327916 0,-2.344288 2.1034422,-4.3279165 4.5893286,-4.3279165 2.485886,0 4.589328,1.9836285 4.589328,4.3279165 0,2.344287 -2.103442,4.327916 -4.589328,4.327916 z m 30.595522,24.524857 h -7.64888 v -10.81979 c 0,-2.885277 -0.764888,-5.770555 -3.824441,-5.770555 -3.059552,0 -3.82444,2.885278 -3.82444,5.770555 v 10.81979 h -7.64888 v -21.63958 h 7.64888 v 2.524618 h 0.382444 c 0.95611,-1.803299 3.441996,-3.245937 6.310327,-3.245937 7.075214,0 8.60499,4.327916 8.60499,9.737811 z"
id="path3766"
inkscape:connector-curvature="0"
style="fill:#828282;stroke-width:1.85696077;fill-opacity:1" /></svg>
